<svg xmlns="http://www.w3.org/2000/svg" width="256" height="256" viewBox="0 0 100 100"><rect width="100" height="100" rx="20" fill="#ebe1d6"></rect><path fill="#3d677b" d="M8.17 52.82L8.17 57.92Q8.17 59.91 8.19 61.68Q8.20 63.45 8.24 64.96Q8.28 66.46 8.36 67.64Q8.44 68.83 8.58 69.60L8.58 69.60L2.67 69.60Q2.96 67.99 3.02 64.95Q3.07 61.90 3.07 57.92L3.07 57.92L3.07 38.91Q3.07 37.03 3.03 35.40Q2.99 33.78 2.91 32.49Q2.83 31.20 2.67 30.40L2.67 30.40Q4.06 30.34 5.76 30.26L5.76 30.26Q7.21 30.21 9.19 30.17Q11.18 30.13 13.54 30.13L13.54 30.13Q16.69 30.13 19.28 30.76Q21.87 31.39 23.72 32.72Q25.57 34.05 26.61 36.14Q27.64 38.24 27.64 41.14L27.64 41.14Q27.64 43.58 26.88 45.46Q26.11 47.34 24.86 48.70Q23.61 50.05 22.03 50.94Q20.45 51.83 18.81 52.28L18.81 52.28Q19.61 53.38 20.78 54.98Q21.95 56.58 23.28 58.37Q24.61 60.15 25.96 61.99Q27.32 63.83 28.50 65.39Q29.68 66.95 30.57 68.07Q31.46 69.20 31.81 69.60L31.81 69.60L24.96 69.60L13.62 52.82L8.17 52.82ZM8.17 34.56L8.17 48.66L13.28 48.66Q17.84 48.66 20.19 46.78Q22.54 44.90 22.54 41.54L22.54 41.54Q22.54 39.82 22.02 38.49Q21.49 37.16 20.38 36.26Q19.26 35.36 17.50 34.89Q15.75 34.42 13.28 34.42L13.28 34.42Q11.85 34.42 10.55 34.46Q9.25 34.50 8.17 34.56L8.17 34.56ZM65.37 60.61L66.45 65.84Q65.27 66.95 63.68 67.76Q62.10 68.58 60.37 69.15Q58.63 69.71 56.86 69.99Q55.09 70.28 53.56 70.28L53.56 70.28Q49.48 70.28 46.23 68.89Q42.98 67.51 40.69 64.95Q38.41 62.38 37.19 58.73Q35.97 55.08 35.97 50.54L35.97 50.54Q35.97 45.35 37.47 41.45Q38.98 37.54 41.49 34.93Q44.00 32.33 47.27 31.03Q50.55 29.72 54.10 29.72L54.10 29.72Q55.55 29.72 57.05 29.91Q58.55 30.10 60.07 30.53Q61.59 30.96 63.09 31.68Q64.60 32.41 66.05 33.48L66.05 33.48L64.43 38.32Q63.17 37.19 61.86 36.41Q60.54 35.63 59.22 35.16Q57.91 34.69 56.61 34.49Q55.30 34.29 54.10 34.29L54.10 34.29Q51.28 34.29 48.91 35.27Q46.55 36.25 44.84 38.21Q43.14 40.17 42.17 43.08Q41.20 46.00 41.20 49.87L41.20 49.87Q41.20 53.49 42.16 56.39Q43.11 59.29 44.79 61.33Q46.47 63.37 48.78 64.48Q51.09 65.58 53.83 65.58L53.83 65.58Q55.36 65.58 56.93 65.23Q58.50 64.88 60.00 64.22Q61.51 63.56 62.88 62.65Q64.25 61.74 65.37 60.61L65.37 60.61ZM79.61 65.17L85.62 65.17Q87.61 65.17 89.38 65.16Q91.16 65.15 92.66 65.11Q94.16 65.07 95.35 64.99Q96.53 64.90 97.33 64.77L97.33 64.77L97.33 69.60L74.10 69.60Q74.40 67.99 74.45 64.95Q74.51 61.90 74.51 57.92L74.51 57.92L74.51 42.08Q74.51 38.10 74.45 35.05Q74.40 32.01 74.10 30.40L74.10 30.40L79.61 30.40L79.61 65.17Z"></path></svg>